<svg width="52" height="50" viewBox="0 0 52 50" fill="none" xmlns="http://www.w3.org/2000/svg">
<path d="M17.7072 15.1258L16.5772 21.6082C16.5178 21.9126 16.5471 22.2274 16.6617 22.5159C16.7764 22.8044 16.9716 23.0548 17.2247 23.2379C17.4736 23.4221 17.7697 23.5338 18.0794 23.5605C18.3892 23.5871 18.7004 23.5277 18.9778 23.3888L25.086 20.3709L30.8767 23.3526C31.1531 23.4999 31.4659 23.5673 31.7793 23.5472C32.0926 23.5271 32.394 23.4203 32.6488 23.239C32.9037 23.0577 33.1018 22.8092 33.2205 22.5219C33.3392 22.2345 33.3736 21.92 33.32 21.6143L32.1899 15.156L36.9422 10.5627C37.1656 10.3483 37.3237 10.0764 37.3988 9.77769C37.4738 9.47901 37.4627 9.16554 37.3667 8.87279C37.2707 8.58004 37.0936 8.3197 36.8556 8.12127C36.6175 7.92283 36.328 7.79423 36.0198 7.75003L29.3924 6.79638L26.4359 0.905428C26.2958 0.631072 26.0809 0.400899 25.8153 0.240911C25.5498 0.0809234 25.2443 -0.00250268 24.9333 5.71878e-05C24.6234 -0.00137586 24.3191 0.0825819 24.0548 0.242507C23.7904 0.402432 23.5764 0.631995 23.4368 0.905428L20.4743 6.79638L13.8468 7.73796C13.5356 7.77948 13.2425 7.907 13.0014 8.10584C12.7603 8.30469 12.5809 8.56677 12.4839 8.86192C12.3869 9.15708 12.3762 9.4733 12.4531 9.7742C12.5299 10.0751 12.6912 10.3484 12.9184 10.5627L17.7072 15.1258ZM21.2073 8.52262C21.351 8.49888 21.487 8.44159 21.6038 8.35551C21.7207 8.26943 21.8151 8.15704 21.8792 8.02768L24.9333 1.99187L27.9874 8.02768C28.0533 8.1593 28.1505 8.27312 28.2707 8.35934C28.391 8.44556 28.5306 8.5016 28.6777 8.52262L35.4456 9.48835L30.559 14.1601C30.4515 14.2622 30.3708 14.3886 30.324 14.5285C30.2771 14.6684 30.2656 14.8175 30.2903 14.9628L31.4447 21.572L25.5258 18.524C25.3964 18.4583 25.2529 18.424 25.1074 18.424C24.9619 18.424 24.8184 18.4583 24.689 18.524L18.4586 21.6143L19.6191 14.9749C19.6395 14.83 19.624 14.6824 19.574 14.5447C19.524 14.407 19.441 14.2833 19.332 14.1842L14.4454 9.51249L21.2073 8.52262Z" fill="#FF6B00"/>
<path d="M50.5878 26.8598C50.281 26.5096 49.9072 26.2227 49.4879 26.0155C49.0687 25.8084 48.6121 25.6851 48.1445 25.6527C47.677 25.6209 47.2077 25.6825 46.7649 25.834C46.322 25.9854 45.9145 26.2234 45.5668 26.5339L37.1068 34.0424C37.0848 33.8756 37.0522 33.7103 37.0091 33.5475C36.867 33.0245 36.6122 32.538 36.2622 32.1213C35.9121 31.7046 35.4752 31.3676 34.9812 31.1332C33.4113 30.4813 31.2307 30.7831 29.1233 31.0849C27.8908 31.3233 26.6319 31.4005 25.379 31.3142C24.8214 31.176 24.2822 30.9734 23.7725 30.7107C22.1721 30.0045 19.9793 29.0387 15.8989 29.926C13.7923 30.4637 11.8573 31.5183 10.2732 32.9922V30.7831C10.2732 30.543 10.1767 30.3127 10.0049 30.1429C9.83304 29.9731 9.59999 29.8777 9.35699 29.8777H1.41624C1.17324 29.8777 0.940189 29.9731 0.76836 30.1429C0.596532 30.3127 0.5 30.543 0.5 30.7831V48.2869C0.5 48.527 0.596532 48.7573 0.76836 48.9271C0.940189 49.0969 1.17324 49.1923 1.41624 49.1923H9.35699C9.59999 49.1923 9.83304 49.0969 10.0049 48.9271C10.1767 48.7573 10.2732 48.527 10.2732 48.2869V47.0315C11.4949 47.3152 17.0412 48.5887 21.1398 48.5887C25.4156 48.5887 30.6443 47.623 33.8634 46.2408C39.7945 43.6997 49.5616 32.7327 50.3557 31.8454C51.0437 31.2078 51.4528 30.3302 51.4962 29.3992C51.5395 28.4681 51.2136 27.5571 50.5878 26.8598ZM8.44075 47.3816H2.33248V31.6885H8.44075V47.3816ZM49.0852 30.5356L48.9996 30.6201C48.8958 30.7348 38.805 42.1546 33.1182 44.587C30.1251 45.8726 25.1896 46.778 21.1398 46.778C16.864 46.778 10.5542 45.2328 10.4931 45.2207C10.4201 45.212 10.3463 45.212 10.2732 45.2207V35.5634C10.939 34.809 13.2907 32.3584 16.296 31.7066C19.7899 30.9521 21.5124 31.7066 23.0151 32.3765C23.6633 32.6921 24.3486 32.9272 25.0552 33.0767C26.4978 33.2111 27.9525 33.138 29.3738 32.8594C31.1513 32.618 33.167 32.3403 34.2604 32.793C34.4955 32.9265 34.701 33.1054 34.8647 33.319C35.0284 33.5326 35.1469 33.7766 35.2133 34.0364C35.302 34.3927 35.3034 34.7647 35.2174 35.1217C35.1313 35.4786 34.9603 35.8101 34.7185 36.0886C33.3258 37.9355 24.8537 40.6999 21.3781 40.4283C21.1351 40.4099 20.8946 40.4876 20.7096 40.6444C20.5246 40.8012 20.4102 41.0241 20.3916 41.2643C20.3729 41.5044 20.4516 41.742 20.6103 41.9248C20.7689 42.1076 20.9946 42.2206 21.2376 42.2391C21.4269 42.2391 21.6346 42.2391 21.8484 42.2391C25.6416 42.2391 32.886 40.0299 35.537 37.8208L35.6042 37.7846L46.7457 27.8859C47.0805 27.5912 47.5197 27.4393 47.9674 27.4634C48.2016 27.4774 48.4306 27.5381 48.6406 27.6419C48.8505 27.7456 49.0371 27.8902 49.189 28.067C49.5027 28.4097 49.6676 28.8605 49.6482 29.3223C49.6287 29.784 49.4266 30.2198 49.0852 30.5356Z" fill="#FF6B00"/>
</svg>
