<svg width="46" height="50" viewBox="0 0 46 50" fill="none" xmlns="http://www.w3.org/2000/svg">
<path d="M45.557 11.9745L23.4089 0.0995208C23.2856 0.0341744 23.1481 0 23.0085 0C22.8689 0 22.7314 0.0341744 22.6081 0.0995208L0.46 11.9745C0.322383 12.0455 0.206829 12.1525 0.125776 12.284C0.0447135 12.4156 0.00122667 12.5666 0 12.7209V36.4709C0.000408889 36.6244 0.0426183 36.7748 0.122122 36.9063C0.201633 37.0377 0.315458 37.1452 0.451482 37.2173L22.5996 49.0923C22.7229 49.1577 22.8604 49.1919 23 49.1919C23.1396 49.1919 23.2771 49.1577 23.4004 49.0923L45.5485 37.2173C45.6846 37.1452 45.7984 37.0377 45.8778 36.9063C45.9574 36.7748 45.9996 36.6244 46 36.4709V12.7209C46.0004 12.5683 45.9594 12.4185 45.8815 12.2872C45.8036 12.1558 45.6915 12.0478 45.557 11.9745ZM23 1.81291L43.3593 12.7209L37.3963 15.9187L17.7441 4.62898L23 1.81291ZM2.64074 12.7209L9.05519 9.32807L28.6989 20.5754L23 23.629L2.64074 12.7209ZM15.9807 5.5705L35.633 16.8602L30.4622 19.6339L10.8185 8.33566L15.9807 5.5705ZM31.5952 20.9486L36.2293 18.4718V24.7995L34.4404 23.0352C34.341 22.9369 34.2188 22.8645 34.0845 22.8244C33.9504 22.7844 33.8083 22.7779 33.671 22.8056C33.5337 22.8333 33.4053 22.8943 33.2974 22.9831C33.1893 23.072 33.105 23.186 33.0518 23.3151L31.5952 26.8098V20.9486ZM1.7037 14.1374L22.1481 25.1048V46.9294L1.7037 35.962V14.1374ZM23.8519 46.9294V25.1048L29.8915 21.8647V31.0763C29.9014 31.2662 29.975 31.4474 30.1007 31.5905C30.2263 31.7338 30.3967 31.8308 30.5844 31.866C30.7721 31.9012 30.9663 31.8727 31.1356 31.7848C31.305 31.6969 31.4399 31.555 31.5185 31.3816L34.1252 25.1133L36.4593 27.4205C36.5784 27.5402 36.7307 27.6217 36.8965 27.6548C37.0625 27.688 37.2344 27.6712 37.3908 27.6066C37.547 27.5419 37.6804 27.4325 37.7739 27.2921C37.8675 27.1517 37.9169 26.9867 37.9159 26.8182V17.5557L44.2878 14.1629V35.962L23.8519 46.9294Z" fill="#FF6B00"/>
</svg>
