<svg width="51" height="50" viewBox="0 0 51 50" fill="none" xmlns="http://www.w3.org/2000/svg">
<path d="M41.3571 26.4694C40.8861 26.0061 40.2474 25.7458 39.5814 25.7458C38.9153 25.7458 38.2766 26.0061 37.8056 26.4694L35.437 28.7996C35.432 28.7996 35.4303 28.8103 35.4261 28.8144L34.254 29.9619C33.8665 30.3455 33.4058 30.65 32.8984 30.8577C32.3908 31.0655 31.8465 31.1725 31.2969 31.1725C30.7473 31.1725 30.203 31.0655 29.6954 30.8577C29.1879 30.65 28.7273 30.3455 28.3398 29.9619L20.0511 21.8072C19.6612 21.4259 19.3516 20.9724 19.1405 20.473C18.9292 19.9735 18.8206 19.438 18.8206 18.897C18.8206 18.3561 18.9292 17.8205 19.1405 17.321C19.3516 16.8216 19.6612 16.3682 20.0511 15.9869L21.2183 14.8337L21.2291 14.8271L23.5977 12.4977C23.8309 12.2682 24.016 11.9958 24.1422 11.696C24.2685 11.3961 24.3335 11.0747 24.3335 10.7502C24.3335 10.4256 24.2685 10.1042 24.1422 9.80439C24.016 9.50457 23.8309 9.23217 23.5977 9.00268L16.4912 2.00695C16.0127 1.55746 15.3766 1.30664 14.715 1.30664C14.0534 1.30664 13.4173 1.55746 12.9388 2.00695L10.5711 4.33639L10.5653 4.34545C7.74536 7.12513 6.0918 10.8469 5.93327 14.771C5.77474 18.6951 7.12283 22.5343 9.7096 25.5254V28.396C9.58904 28.4429 9.47266 28.4907 9.3588 28.5393L7.13677 26.3532C6.97681 26.2044 6.76501 26.1215 6.54485 26.1215C6.32469 26.1215 6.11288 26.2044 5.95292 26.3532L2.40304 29.8457C2.24608 30.0002 2.1579 30.2096 2.1579 30.4281C2.1579 30.6465 2.24608 30.856 2.40304 31.0104L4.62506 33.1966C4.57483 33.3086 4.52711 33.4231 4.47938 33.5417H1.33724C1.11518 33.5417 0.902233 33.6285 0.745218 33.7829C0.588211 33.9374 0.5 34.1469 0.5 34.3654V39.3076C0.5 39.5261 0.588211 39.7356 0.745218 39.8901C0.902233 40.0445 1.11518 40.1313 1.33724 40.1313H4.47938C4.52711 40.2499 4.57483 40.3644 4.62506 40.4756L2.40304 42.6626C2.24608 42.817 2.1579 43.0265 2.1579 43.2449C2.1579 43.4634 2.24608 43.6728 2.40304 43.8273L5.95292 47.3198C6.10993 47.4742 6.32284 47.561 6.54485 47.561C6.76685 47.561 6.97976 47.4742 7.13677 47.3198L9.3588 45.1337C9.47266 45.1823 9.58904 45.2301 9.7096 45.277V48.3684C9.7096 48.5868 9.79784 48.7964 9.95483 48.9508C10.1118 49.1053 10.3248 49.1921 10.5468 49.1921H15.5703C15.7923 49.1921 16.0053 49.1053 16.1623 48.9508C16.3192 48.7964 16.4075 48.5868 16.4075 48.3684V45.277C16.5281 45.2301 16.6444 45.1823 16.7583 45.1337L18.9803 47.3198C19.1403 47.4686 19.3521 47.5515 19.5722 47.5515C19.7924 47.5515 20.0042 47.4686 20.1642 47.3198L23.7141 43.8273C23.871 43.6728 23.9592 43.4634 23.9592 43.2449C23.9592 43.0265 23.871 42.817 23.7141 42.6626L21.492 40.4756C21.5423 40.3644 21.59 40.2499 21.6377 40.1313H24.5546C27.5927 42.6805 31.4956 44.0097 35.4853 43.8537C39.4751 43.6979 43.2587 42.0685 46.0817 39.2903L46.0925 39.2837L48.4602 36.9535C48.6935 36.724 48.8786 36.4516 49.0048 36.1518C49.131 35.8519 49.1961 35.5305 49.1961 35.206C49.1961 34.8814 49.131 34.56 49.0048 34.2602C48.8786 33.9604 48.6935 33.688 48.4602 33.4585L41.3571 26.4694ZM14.1243 3.17085C14.2838 3.0211 14.4958 2.93754 14.7163 2.93754C14.9367 2.93754 15.1487 3.0211 15.3082 3.17085L22.4121 10.1608C22.5689 10.3153 22.6569 10.5246 22.6569 10.7428C22.6569 10.961 22.5689 11.1703 22.4121 11.3247L20.6372 13.0701L12.3486 4.91546L14.1243 3.17085ZM23.9426 38.4839H21.0458C20.8685 38.4839 20.6958 38.5393 20.5526 38.642C20.4094 38.7447 20.303 38.8895 20.2487 39.0556C20.1188 39.4676 19.9492 39.8664 19.7422 40.2466C19.6553 40.4028 19.6222 40.5826 19.6478 40.7588C19.6735 40.9351 19.7566 41.0984 19.8845 41.2244L21.9374 43.2449L19.5722 45.5727L17.5185 43.5522C17.3904 43.4261 17.2242 43.3443 17.0449 43.3191C16.8655 43.2938 16.6828 43.3265 16.5239 43.4121C16.1376 43.6163 15.7322 43.7832 15.3132 43.9105C15.1446 43.964 14.9976 44.0687 14.8933 44.2097C14.7891 44.3505 14.7329 44.5204 14.733 44.6947V47.5447H11.3841V44.6947C11.3842 44.5204 11.328 44.3505 11.2237 44.2097C11.1195 44.0687 10.9725 43.964 10.8039 43.9105C10.3849 43.7832 9.97944 43.6163 9.59322 43.4121C9.43432 43.3265 9.25155 43.2938 9.07221 43.3191C8.89287 43.3443 8.72668 43.4261 8.59859 43.5522L6.54485 45.5727L4.18384 43.2449L6.23674 41.2244C6.3647 41.0984 6.44773 40.9351 6.47339 40.7588C6.49905 40.5826 6.46595 40.4028 6.37907 40.2466C6.17352 39.8663 6.00531 39.4674 5.87673 39.0556C5.82206 38.8882 5.71439 38.7424 5.56947 38.6396C5.42456 38.5367 5.24999 38.4822 5.07131 38.4839H2.17447V35.1891H5.07131C5.24857 35.1891 5.42125 35.1337 5.56448 35.031C5.70772 34.9283 5.81411 34.7835 5.86836 34.6174C5.99693 34.2056 6.16514 33.8068 6.3707 33.4264C6.45758 33.2702 6.49068 33.0905 6.46502 32.9142C6.43935 32.7379 6.35633 32.5746 6.22837 32.4486L4.18384 30.4281L6.54485 28.1003L8.59859 30.1208C8.72668 30.2469 8.89287 30.3287 9.07221 30.3539C9.25155 30.3792 9.43432 30.3465 9.59322 30.2609C9.97944 30.0567 10.3849 29.8898 10.8039 29.7625C10.9725 29.709 11.1195 29.6043 11.2237 29.4634C11.328 29.3224 11.3842 29.1527 11.3841 28.9784V26.1283H14.733V28.9784C14.7329 29.1527 14.7891 29.3224 14.8933 29.4634C14.9976 29.6043 15.1446 29.709 15.3132 29.7625C15.7322 29.8898 16.1376 30.0567 16.5239 30.2609C16.6828 30.3465 16.8655 30.3792 17.0449 30.3539C17.2242 30.3287 17.3904 30.2469 17.5185 30.1208L19.5722 28.1003L21.9374 30.4281L19.8845 32.4486C19.7566 32.5746 19.6735 32.7379 19.6478 32.9142C19.6222 33.0905 19.6553 33.2702 19.7422 33.4264C19.9492 33.8066 20.1188 34.2054 20.2487 34.6174C20.303 34.7835 20.4094 34.9283 20.5526 35.031C20.6958 35.1337 20.8685 35.1891 21.0458 35.1891H23.9426V38.4839ZM25.6171 38.8604V34.3654C25.6171 34.1469 25.5288 33.9374 25.3719 33.7829C25.2149 33.6285 25.0019 33.5417 24.7799 33.5417H21.6377C21.59 33.4231 21.5423 33.3086 21.492 33.1966L23.7141 31.0104C23.871 30.856 23.9592 30.6465 23.9592 30.4281C23.9592 30.2096 23.871 30.0002 23.7141 29.8457L20.1642 26.3532C20.0072 26.1988 19.7943 26.112 19.5722 26.112C19.3502 26.112 19.1373 26.1988 18.9803 26.3532L16.7583 28.5393C16.6444 28.4907 16.5281 28.4429 16.4075 28.396V25.3046C16.4075 25.0862 16.3192 24.8766 16.1623 24.7222C16.0053 24.5677 15.7923 24.4809 15.5703 24.4809H11.0023C8.77198 21.9124 7.5615 18.6367 7.59441 15.2586C7.62739 11.8806 8.9015 8.62839 11.1815 6.10242L19.4508 14.2382L18.8648 14.8197C18.3188 15.3542 17.8855 15.9895 17.5899 16.6893C17.2943 17.389 17.1421 18.1393 17.1421 18.897C17.1421 19.6548 17.2943 20.4051 17.5899 21.1048C17.8855 21.8045 18.3188 22.4399 18.8648 22.9744L27.1534 31.1291C27.6961 31.6659 28.3413 32.092 29.0519 32.3829C29.7624 32.6737 30.5243 32.8237 31.294 32.8241C32.0636 32.8245 32.8256 32.6753 33.5365 32.3851C34.2473 32.0949 34.8929 31.6695 35.4362 31.1332L36.0315 30.5516L44.3017 38.6874C41.7334 40.9308 38.4267 42.1842 34.9923 42.216C31.5579 42.2478 28.2278 41.0559 25.6171 38.8604ZM47.2764 35.7888L45.5023 37.5342L37.2136 29.3795L38.9886 27.6349C39.1456 27.4804 39.3585 27.3937 39.5805 27.3937C39.8026 27.3937 40.0155 27.4804 40.1724 27.6349L47.2764 34.624C47.4334 34.7785 47.5215 34.9879 47.5215 35.2064C47.5215 35.4248 47.4334 35.6343 47.2764 35.7888Z" fill="#FF6B00"/>
<path d="M13.0573 32.7168C12.2293 32.7168 11.42 32.9583 10.7316 33.4109C10.0431 33.8635 9.50656 34.5066 9.18975 35.2592C8.87294 36.0118 8.78997 36.8399 8.95156 37.6388C9.11306 38.4378 9.51175 39.1716 10.0972 39.7475C10.6826 40.3235 11.4285 40.7158 12.2406 40.8747C13.0527 41.0337 13.8944 40.952 14.6593 40.6403C15.4242 40.3287 16.0779 39.8007 16.538 39.1234C16.998 38.4462 17.2435 37.6499 17.2435 36.8353C17.2421 35.7434 16.8006 34.6967 16.0159 33.9245C15.2311 33.1525 14.1671 32.7181 13.0573 32.7168ZM13.0573 39.3064C12.5605 39.3064 12.0749 39.1615 11.6619 38.89C11.2488 38.6185 10.9269 38.2325 10.7368 37.7809C10.5467 37.3295 10.4969 36.8326 10.5938 36.3532C10.6907 35.8739 10.9299 35.4335 11.2813 35.088C11.6325 34.7424 12.0801 34.507 12.5672 34.4117C13.0545 34.3163 13.5595 34.3653 14.0185 34.5523C14.4774 34.7393 14.8697 35.056 15.1457 35.4625C15.4217 35.8688 15.569 36.3466 15.569 36.8353C15.569 37.4907 15.3043 38.1192 14.8333 38.5826C14.3623 39.0461 13.7235 39.3064 13.0573 39.3064Z" fill="#FF6B00"/>
<path d="M29.0803 0.00765425C28.8602 -0.0220568 28.6372 0.0354542 28.4602 0.167527C28.2833 0.2996 28.1669 0.495428 28.1367 0.711922C28.1065 0.928417 28.1649 1.14784 28.2992 1.32194C28.4334 1.49603 28.6325 1.61053 28.8525 1.64024C33.9022 2.33485 38.5842 4.62946 42.1895 8.1765C45.7948 11.7236 48.1271 16.33 48.8332 21.298C48.8606 21.4951 48.9598 21.6757 49.1121 21.8065C49.2644 21.9373 49.4599 22.0095 49.662 22.0096C49.7001 22.0096 49.7381 22.0072 49.7759 22.0022C49.8848 21.9876 49.9898 21.9519 50.0848 21.8973C50.1797 21.8427 50.2628 21.7702 50.3293 21.684C50.3958 21.5978 50.4444 21.4995 50.4722 21.3948C50.5001 21.2901 50.5067 21.1811 50.4917 21.0739C49.7351 15.7501 47.2357 10.8138 43.3722 7.01261C39.5087 3.21141 34.4915 0.7523 29.0803 0.00765425Z" fill="#FF6B00"/>
<path d="M28.8213 6.64293C32.5389 7.29061 35.9645 9.0465 38.6341 11.673C41.3037 14.2995 43.0884 17.6696 43.7468 21.3271C43.7807 21.5181 43.882 21.6912 44.0328 21.816C44.1836 21.9407 44.3743 22.0092 44.5714 22.0092C44.62 22.0091 44.6685 22.005 44.7163 21.9968C44.935 21.9592 45.1295 21.8377 45.2572 21.659C45.3849 21.4803 45.4351 21.2589 45.397 21.0438C44.6794 17.0524 42.7322 13.3746 39.8191 10.5085C36.906 7.64233 33.1679 5.72638 29.111 5.02023C29.0028 5.00152 28.8918 5.00397 28.7844 5.02746C28.6771 5.05095 28.5755 5.095 28.4854 5.15711C28.3954 5.21922 28.3188 5.29816 28.2597 5.38944C28.2007 5.48072 28.1605 5.58254 28.1415 5.68908C28.1225 5.79563 28.125 5.90482 28.1489 6.01042C28.1727 6.11602 28.2175 6.21596 28.2807 6.30453C28.3438 6.3931 28.424 6.46855 28.5168 6.52663C28.6096 6.5847 28.7131 6.62423 28.8213 6.64293Z" fill="#FF6B00"/>
<path d="M28.7682 11.6754C31.1547 12.2563 33.3348 13.4672 35.0732 15.1777C36.8115 16.8881 38.0423 19.033 38.6325 21.3811C38.6555 21.4891 38.7002 21.5914 38.7642 21.6821C38.8281 21.7727 38.9099 21.8498 39.0048 21.9087C39.0995 21.9676 39.2054 22.0072 39.316 22.0251C39.4266 22.043 39.5398 22.0389 39.6488 22.0129C39.7578 21.987 39.8604 21.9398 39.9505 21.8741C40.0406 21.8084 40.1164 21.7256 40.1733 21.6306C40.2302 21.5355 40.2671 21.4302 40.282 21.3209C40.2967 21.2115 40.289 21.1003 40.2593 20.9939C39.5955 18.3518 38.2109 15.9383 36.2548 14.0138C34.2987 12.0893 31.8455 10.7271 29.16 10.0741C29.0522 10.0461 28.9398 10.0396 28.8295 10.055C28.7191 10.0703 28.613 10.1072 28.5173 10.1634C28.4216 10.2196 28.3383 10.2941 28.2722 10.3825C28.2062 10.4708 28.1588 10.5712 28.1327 10.6778C28.1065 10.7844 28.1023 10.8951 28.1203 11.0033C28.1383 11.1115 28.178 11.2151 28.2372 11.3081C28.2964 11.401 28.3739 11.4813 28.465 11.5444C28.5562 11.6075 28.6593 11.652 28.7682 11.6754Z" fill="#FF6B00"/>
<path d="M30.6419 22.8338C31.3043 22.8338 31.9518 22.6405 32.5025 22.2785C33.0532 21.9165 33.4825 21.4019 33.7359 20.7998C33.9894 20.1978 34.0557 19.5353 33.9265 18.8961C33.7973 18.257 33.4783 17.67 33.01 17.2092C32.5416 16.7484 31.9449 16.4346 31.2953 16.3075C30.6456 16.1803 29.9723 16.2455 29.3604 16.495C28.7484 16.7443 28.2253 17.1666 27.8573 17.7084C27.4894 18.2503 27.293 18.8873 27.293 19.539C27.293 20.4128 27.6458 21.2509 28.2739 21.8687C28.9019 22.4867 29.7537 22.8338 30.6419 22.8338ZM30.6419 17.8916C30.9731 17.8916 31.2968 17.9882 31.5722 18.1692C31.8475 18.3502 32.0622 18.6075 32.189 18.9085C32.3156 19.2096 32.3488 19.5408 32.2842 19.8604C32.2196 20.1799 32.0601 20.4735 31.8259 20.7038C31.5918 20.9342 31.2934 21.0912 30.9686 21.1547C30.6438 21.2183 30.3071 21.1856 30.0011 21.061C29.6952 20.9363 29.4336 20.7251 29.2497 20.4542C29.0656 20.1833 28.9674 19.8648 28.9674 19.539C28.9674 19.1021 29.1438 18.6831 29.4579 18.3741C29.7719 18.0651 30.1978 17.8916 30.6419 17.8916Z" fill="#FF6B00"/>
</svg>
