<svg width="39" height="50" viewBox="0 0 39 50" fill="none" xmlns="http://www.w3.org/2000/svg">
<path d="M38.2767 17.9559L35.0201 14.4568L36.0391 9.84247C36.1336 9.43322 35.8815 9.02397 35.4718 8.89096L30.86 7.43813L29.3788 2.9466C29.2422 2.54759 28.822 2.31227 28.4018 2.39412L23.664 3.38655L20.0712 0.214857C19.756 -0.0716189 19.2623 -0.0716189 18.9471 0.214857L15.3543 3.38655L10.6165 2.39412C10.1963 2.30203 9.77608 2.54759 9.63951 2.9466L8.14777 7.43813L3.52549 8.89096C3.11578 9.02397 2.87418 9.43322 2.95822 9.84247L3.97721 14.4568L0.720609 17.9559C0.426464 18.2628 0.426464 18.7437 0.720609 19.0506L3.97721 22.5497L2.95822 27.164C2.86367 27.5733 3.11578 27.9825 3.52549 28.1155L8.13727 29.5683L8.32636 30.1515L2.84266 44.9562C2.7166 45.2836 2.82165 45.6519 3.10529 45.8668C3.37841 46.0816 3.76711 46.1123 4.07176 45.9281L9.67103 42.5928L11.7826 48.6394C11.8981 48.9668 12.2133 49.1919 12.5705 49.1919H12.581C12.9381 49.1919 13.2533 48.9771 13.3689 48.6497L18.0647 36.0038L18.9471 36.7814C19.1047 36.9246 19.3043 36.9963 19.5144 36.9963C19.7245 36.9963 19.9136 36.9246 20.0817 36.7814L20.9641 36.0038L25.6599 48.6497C25.7755 48.9771 26.1012 49.1919 26.4478 49.1919H26.4583C26.8155 49.1919 27.1307 48.9668 27.2462 48.6394L29.3578 42.5928L34.9571 45.9281C35.2617 46.1123 35.6504 46.0816 35.9235 45.8668C36.1967 45.6519 36.3017 45.2836 36.1862 44.9562L30.6919 30.1618L30.881 29.5786L35.4928 28.1257C35.9025 27.9927 36.1441 27.5835 36.0601 27.1742L35.0411 22.5599L38.2977 19.0608C38.5708 18.7437 38.5708 18.273 38.2767 17.9559ZM12.5915 45.9077L10.9106 41.099C10.8266 40.8637 10.6375 40.6795 10.3959 40.5874C10.1543 40.4953 9.89164 40.526 9.67103 40.659L5.21682 43.3089L9.15627 32.6991L9.608 34.0599C9.74457 34.4589 10.1648 34.6942 10.585 34.6124L15.3228 33.6199L16.6885 34.8272L12.5915 45.9077ZM33.77 43.3192L29.3158 40.6693C29.0951 40.5363 28.8325 40.5158 28.5909 40.5977C28.3493 40.6795 28.1602 40.8637 28.0761 41.1092L26.3953 45.9179L22.2773 34.8375L23.6429 33.6302L28.3808 34.6226C28.801 34.7147 29.2212 34.4691 29.3578 34.0701L29.8095 32.7093L33.77 43.3192ZM33.4968 21.7721C33.3182 21.9665 33.2447 22.2325 33.2972 22.4883L34.2427 26.7957L29.9461 28.1462C29.6939 28.2281 29.4838 28.4224 29.3998 28.6782L28.9901 29.906L28.0131 32.8628L23.5904 31.942C23.3278 31.8908 23.0547 31.9625 22.8551 32.1364L19.5039 35.083L16.1527 32.1262C15.9952 31.9932 15.7956 31.9113 15.5855 31.9113C15.5224 31.9113 15.4699 31.9215 15.4069 31.9318L10.9842 32.8526L10.0072 29.8957L9.59749 28.668C9.51345 28.4224 9.31385 28.2178 9.05122 28.136L4.7651 26.7957L5.71057 22.4883C5.76309 22.2325 5.68956 21.9665 5.51097 21.7721L2.48548 18.5084L5.52148 15.2446C5.70006 15.0502 5.7736 14.7842 5.72107 14.5284L4.77561 10.221L9.07223 8.8705C9.32436 8.78865 9.53446 8.59426 9.6185 8.33848L10.9947 4.15389L15.4174 5.07471C15.68 5.12586 15.9531 5.05424 16.1527 4.88031L19.5039 1.93371L22.8551 4.89055C23.0547 5.06448 23.3278 5.1361 23.5904 5.08494L28.0131 4.16412L29.3998 8.34871C29.4838 8.59426 29.6834 8.79888 29.9461 8.88073L34.2427 10.2313L33.2972 14.5386C33.2447 14.7944 33.3182 15.0604 33.4968 15.2548L36.5223 18.5084L33.4968 21.7721Z" fill="#FF6B00"/>
<path d="M19.5047 6.64062C12.5502 6.64062 6.89844 12.145 6.89844 18.9181C6.89844 25.6912 12.5502 31.1957 19.5047 31.1957C26.4591 31.1957 32.1109 25.6912 32.1109 18.9181C32.1109 12.145 26.4591 6.64062 19.5047 6.64062ZM19.5047 29.5587C13.4852 29.5587 8.57927 24.7807 8.57927 18.9181C8.57927 13.0556 13.4852 8.27763 19.5047 8.27763C25.5242 8.27763 30.4301 13.0556 30.4301 18.9181C30.4301 24.7807 25.5242 29.5587 19.5047 29.5587Z" fill="#FF6B00"/>
<path d="M24.1992 12.8418L16.9821 19.7991L14.8075 17.7017C14.1562 17.0776 13.0952 17.0776 12.4334 17.7017L11.0992 18.9806C10.7841 19.2875 10.6055 19.6968 10.6055 20.1367C10.6055 20.5766 10.7841 20.9859 11.0992 21.2928L15.795 25.8151C16.1207 26.1322 16.5514 26.2857 16.9821 26.2857C17.4128 26.2857 17.8436 26.1322 18.1692 25.8151L27.9075 16.4432C28.2227 16.1363 28.4013 15.727 28.4013 15.2871C28.4013 14.8471 28.2227 14.4379 27.9075 14.1309L26.5734 12.852C25.9221 12.2177 24.8505 12.2177 24.1992 12.8418ZM18.9151 22.7968L16.9821 24.6487L12.2968 20.1367L13.631 18.868L16.3938 21.5282C16.7195 21.8453 17.2448 21.8453 17.5704 21.5282L25.3863 14.0082L24.798 13.425L26.7204 15.2768L18.9151 22.7968Z" fill="#FF6B00"/>
</svg>
