<svg width="46" height="46" viewBox="0 0 46 46" fill="none" xmlns="http://www.w3.org/2000/svg">
<rect width="46" height="46" rx="23" fill="#FF6B00"/>
<path d="M17 28C17.5304 28 18.0391 28.2107 18.4142 28.5858C18.7893 28.9609 19 29.4696 19 30C19 30.5304 18.7893 31.0391 18.4142 31.4142C18.0391 31.7893 17.5304 32 17 32C16.4696 32 15.9609 31.7893 15.5858 31.4142C15.2107 31.0391 15 30.5304 15 30C15 29.4696 15.2107 28.9609 15.5858 28.5858C15.9609 28.2107 16.4696 28 17 28ZM17 28H28M17 28V14H15M28 28C28.5304 28 29.0391 28.2107 29.4142 28.5858C29.7893 28.9609 30 29.4696 30 30C30 30.5304 29.7893 31.0391 29.4142 31.4142C29.0391 31.7893 28.5304 32 28 32C27.4696 32 26.9609 31.7893 26.5858 31.4142C26.2107 31.0391 26 30.5304 26 30C26 29.4696 26.2107 28.9609 26.5858 28.5858C26.9609 28.2107 27.4696 28 28 28ZM17 16L31 17L30 24H17" stroke="white" stroke-width="1.5" stroke-linecap="round" stroke-linejoin="round"/>
</svg>
