<svg width="30" height="30" viewBox="0 0 30 30" fill="none" xmlns="http://www.w3.org/2000/svg">
<rect width="30" height="30" rx="5" fill="#FFE3C4"/>
<path d="M16.5075 24V15.7969H19.4724L19.8995 12.5859H16.5075V10.5469C16.5075 10.0938 16.6122 9.72266 16.8216 9.43359C17.031 9.14453 17.4874 9 18.191 9H20V6.14062C19.6147 6.09375 19.2044 6.05859 18.7688 6.03516C18.3333 6.01172 17.8978 6 17.4623 6C17.4456 6 17.4288 6 17.4121 6C17.3953 6 17.3786 6 17.3618 6C16.0553 6 14.9916 6.36328 14.1709 7.08984C13.3501 7.81641 12.9397 8.86719 12.9397 10.2422V12.5859H10V15.7969H12.9397V24H16.5075Z" fill="#FF6B00"/>
</svg>
