<svg width="30" height="30" viewBox="0 0 30 30" fill="none" xmlns="http://www.w3.org/2000/svg">
<rect x="0.5" y="0.5" width="29" height="29" rx="4.5" stroke="#FFE3C4"/>
<path d="M15 10.3714C14.3594 10.3714 13.7578 10.4883 13.1953 10.7221C12.6328 10.9714 12.1445 11.3065 11.7305 11.7273C11.3164 12.1481 10.9844 12.6312 10.7344 13.1766C10.5 13.7377 10.3828 14.3377 10.3828 14.9766C10.3828 15.6156 10.5 16.2156 10.7344 16.7766C10.9844 17.3377 11.3164 17.8286 11.7305 18.2494C12.1445 18.6701 12.6328 18.9974 13.1953 19.2312C13.7578 19.4805 14.3594 19.6052 15 19.6052C15.6406 19.6052 16.2422 19.4805 16.8047 19.2312C17.3672 18.9974 17.8555 18.6701 18.2695 18.2494C18.6836 17.8286 19.0156 17.3377 19.2656 16.7766C19.5 16.2156 19.6172 15.6156 19.6172 14.9766C19.6172 14.3377 19.5 13.7377 19.2656 13.1766C19.0156 12.6312 18.6836 12.1481 18.2695 11.7273C17.8555 11.3065 17.3672 10.9714 16.8047 10.7221C16.2422 10.4883 15.6406 10.3714 15 10.3714ZM15 17.9688C14.1719 17.9688 13.4648 17.6766 12.8789 17.0922C12.293 16.5078 12 15.8026 12 14.9766C12 14.1506 12.293 13.4455 12.8789 12.861C13.4648 12.2766 14.1719 11.9844 15 11.9844C15.8281 11.9844 16.5352 12.2766 17.1211 12.861C17.707 13.4455 18 14.1506 18 14.9766C18 15.8026 17.707 16.5078 17.1211 17.0922C16.5352 17.6766 15.8281 17.9688 15 17.9688ZM20.8828 10.2078C20.8828 10.5039 20.7773 10.7571 20.5664 10.9675C20.3555 11.1779 20.1016 11.2831 19.8047 11.2831C19.5078 11.2831 19.2539 11.1779 19.043 10.9675C18.832 10.7571 18.7266 10.5039 18.7266 10.2078C18.7266 9.91169 18.832 9.65844 19.043 9.44805C19.2539 9.23766 19.5078 9.13247 19.8047 9.13247C20.1016 9.13247 20.3555 9.23766 20.5664 9.44805C20.7773 9.65844 20.8828 9.91169 20.8828 10.2078ZM23.5312 9.10909C23.2969 8.5013 22.9531 7.97143 22.5 7.51948C22.0469 7.06753 21.5234 6.72468 20.9297 6.49091H20.9062C20.5781 6.36623 20.2305 6.26493 19.8633 6.18701C19.4961 6.10909 19.1172 6.07013 18.7266 6.07013H18.7031C18.2344 6.03896 17.8047 6.01948 17.4141 6.01169C17.0234 6.0039 16.2188 6 15 6C13.7812 6 12.9766 6.0039 12.5859 6.01169C12.1953 6.01948 11.7656 6.03896 11.2969 6.07013C10.9062 6.07013 10.5234 6.10909 10.1484 6.18701C9.77344 6.26493 9.41406 6.36623 9.07031 6.49091H9.11719C8.50781 6.72468 7.97656 7.06753 7.52344 7.51948C7.07031 7.97143 6.72656 8.49351 6.49219 9.08571L6.46875 9.10909C6.34375 9.43636 6.24609 9.78312 6.17578 10.1494C6.10547 10.5156 6.0625 10.8935 6.04688 11.2831C6.03125 11.7662 6.01953 12.1987 6.01172 12.5805C6.00391 12.9623 6 13.761 6 14.9766C6 16.2078 6.00391 17.0143 6.01172 17.3961C6.01953 17.7779 6.03125 18.2104 6.04688 18.6935C6.0625 19.0675 6.10547 19.4377 6.17578 19.8039C6.24609 20.1701 6.34375 20.5247 6.46875 20.8675C6.71875 21.4753 7.07031 22.0052 7.52344 22.4571C7.97656 22.9091 8.49219 23.2519 9.07031 23.4857H9.11719C9.42969 23.626 9.76953 23.7351 10.1367 23.813C10.5039 23.8909 10.8828 23.9377 11.2734 23.9532H11.2969C11.7812 23.9688 12.2148 23.9805 12.5977 23.9883C12.9805 23.9961 13.7812 24 15 24C16.2188 24 17.0234 23.9961 17.4141 23.9883C17.8047 23.9805 18.2422 23.9688 18.7266 23.9532C19.1172 23.9377 19.5 23.8948 19.875 23.8247C20.25 23.7545 20.6094 23.6494 20.9531 23.5091L20.9062 23.5325C21.5156 23.2831 22.0469 22.9364 22.5 22.4922C22.9531 22.0481 23.2969 21.5299 23.5312 20.9377V20.8909C23.6719 20.5481 23.7773 20.1935 23.8477 19.8273C23.918 19.461 23.9531 19.0909 23.9531 18.7169C23.9688 18.2338 23.9805 17.8013 23.9883 17.4195C23.9961 17.0377 24 16.239 24 15.0234C24 13.8078 24 13.0052 24 12.6156C24 12.226 23.9844 11.7974 23.9531 11.3299C23.9531 10.9247 23.9141 10.5312 23.8359 10.1494C23.7578 9.76753 23.6484 9.4052 23.5078 9.06234L23.5312 9.10909ZM22.3125 18.6234C22.3125 18.9195 22.2852 19.2117 22.2305 19.5C22.1758 19.7883 22.0938 20.0649 21.9844 20.3299L22.0078 20.3065C21.8516 20.6961 21.625 21.039 21.3281 21.3351C21.0312 21.6312 20.6953 21.8494 20.3203 21.9896L20.2969 22.013C20.0469 22.1065 19.7812 22.1805 19.5 22.2351C19.2188 22.2896 18.9297 22.3169 18.6328 22.3169C18.1484 22.3325 17.7227 22.3442 17.3555 22.3519C16.9883 22.3597 16.1953 22.3636 14.9766 22.3636C13.7578 22.3636 12.9648 22.3636 12.5977 22.3636C12.2305 22.3636 11.8047 22.3481 11.3203 22.3169C11.0078 22.3169 10.7109 22.2896 10.4297 22.2351C10.1484 22.1805 9.875 22.0987 9.60938 21.9896L9.63281 22.013C9.24219 21.8571 8.89844 21.6312 8.60156 21.3351C8.30469 21.039 8.07812 20.7039 7.92188 20.3299V20.3065C7.82812 20.0571 7.75391 19.7922 7.69922 19.5117C7.64453 19.2312 7.61719 18.9429 7.61719 18.6468V18.6234C7.58594 18.1558 7.57031 17.7351 7.57031 17.361C7.57031 16.987 7.57031 16.2 7.57031 15C7.57031 13.7844 7.57031 12.9935 7.57031 12.6273C7.57031 12.261 7.58594 11.8364 7.61719 11.3532C7.61719 11.0416 7.64453 10.7416 7.69922 10.4532C7.75391 10.1649 7.83594 9.88831 7.94531 9.62338L7.92188 9.67013C8.07812 9.26494 8.30469 8.91429 8.60156 8.61818C8.89844 8.32208 9.24219 8.1039 9.63281 7.96364C9.88281 7.87013 10.1484 7.7961 10.4297 7.74156C10.7109 7.68701 11.0078 7.65195 11.3203 7.63636C11.7891 7.62078 12.2109 7.60909 12.5859 7.6013C12.9609 7.59351 13.7578 7.58961 14.9766 7.58961C16.1953 7.58961 16.9883 7.59351 17.3555 7.6013C17.7227 7.60909 18.1484 7.62078 18.6328 7.63636C18.9297 7.65195 19.2188 7.68701 19.5 7.74156C19.7812 7.7961 20.0547 7.87013 20.3203 7.96364H20.2969C20.6875 8.11948 21.0312 8.34156 21.3281 8.62987C21.625 8.91818 21.8516 9.25714 22.0078 9.64675V9.67013C22.1016 9.9039 22.1758 10.1649 22.2305 10.4532C22.2852 10.7416 22.3125 11.0338 22.3125 11.3299C22.3281 11.7974 22.3398 12.2182 22.3477 12.5922C22.3555 12.9662 22.3594 13.761 22.3594 14.9766C22.3594 16.1922 22.3594 16.9831 22.3594 17.3494C22.3594 17.7156 22.3516 18.1403 22.3359 18.6234H22.3125Z" fill="#FFE3C4"/>
</svg>
