<svg width="30" height="30" viewBox="0 0 30 30" fill="none" xmlns="http://www.w3.org/2000/svg">
<rect x="0.5" y="0.5" width="29" height="29" rx="4.5" stroke="#FFE3C4"/>
<g clip-path="url(#clip0_155_1850)">
<path d="M6.27344 23.9278H10.9341V11.6719H6.27344V23.9278ZM7.32812 12.7266H9.87945V22.8731H7.32812V12.7266Z" fill="#FFE3C4"/>
<path d="M8.60504 6.07031C7.16859 6.07031 6 7.23894 6 8.67536C6 10.1118 7.16859 11.2804 8.60504 11.2804C10.0415 11.2804 11.2101 10.1118 11.2101 8.67536C11.2101 7.23891 10.0415 6.07031 8.60504 6.07031ZM7.05469 8.67536C7.05469 7.8205 7.75015 7.125 8.60504 7.125C9.45994 7.125 10.1554 7.82046 10.1554 8.67536C10.1554 9.53025 9.45994 10.2257 8.60504 10.2257C7.75015 10.2257 7.05469 9.53021 7.05469 8.67536Z" fill="#FFE3C4"/>
<path d="M23.988 15.5168C23.8221 13.1313 21.8323 11.293 19.3653 11.293C18.2619 11.293 17.2202 11.6766 16.3995 12.3573V11.6682H11.9336V23.9242H16.5943V17.2211C16.5943 16.4657 17.2089 15.8511 17.9644 15.8511C18.7198 15.8511 19.3344 16.4657 19.3344 17.2214L19.3389 23.9242H23.9993V15.5281L23.988 15.5168ZM15.5396 22.8695H12.9883V12.7229H15.3448V14.2293L16.1887 14.2341L16.3455 13.9907C17.0082 12.9619 18.1371 12.3477 19.3653 12.3477C21.3283 12.3477 22.9 13.8454 22.9435 15.7573L22.9446 22.8695H20.3929L20.3891 17.2211C20.3891 15.8841 19.3013 14.7964 17.9644 14.7964C16.6274 14.7964 15.5396 15.8841 15.5396 17.2211V22.8695Z" fill="#FFE3C4"/>
</g>
<defs>
<clipPath id="clip0_155_1850">
<rect width="18" height="18" fill="white" transform="translate(6 6)"/>
</clipPath>
</defs>
</svg>
